<?xml version="1.0" encoding="utf-8"?>
<!-- Generator: Adobe Illustrator 15.0.2, SVG Export Plug-In . SVG Version: 6.00 Build 0)  -->
<!DOCTYPE svg PUBLIC "-//W3C//DTD SVG 1.1//EN" "http://www.w3.org/Graphics/SVG/1.1/DTD/svg11.dtd">
<svg version="1.1" id="Layer_1" xmlns="http://www.w3.org/2000/svg" xmlns:xlink="http://www.w3.org/1999/xlink" x="0px" y="0px"
	 width="595.275px" height="841.89px" viewBox="0 0 595.275 841.89" enable-background="new 0 0 595.275 841.89"
	 xml:space="preserve">
<rect x="167.936" y="267.639" fill="#FDCBA3" width="283.51" height="283.497"/>
<path fill="#333333" d="M240.445,415.591c0,13.378,3.571,14.883,18.828,15.451v4.896h-60.635v-4.896
	c12.616-0.567,16.191-2.072,16.191-15.451V328.23c0-13.39-3.575-14.893-15.815-15.452v-4.898h106.954l0.762,28.244h-5.273
	c-4.521-14.312-9.421-18.825-34.466-18.825h-19.4c-5.827,0-7.144,1.309-7.144,6.588v40.492H250c19.964,0,24.298-3.588,26.744-16.959
	h4.895v45.199h-4.895c-2.634-15.065-10.169-18.829-26.744-18.829h-9.555V415.591z"/>
<path fill="#333333" d="M427.084,307.88H314.85l-2.605,28.255h6.434c4.111-13.839,10.154-18.835,23.664-18.835h15.818v98.292
	c0,13.378-3.577,14.883-18.076,15.451v4.896h61.771v-4.896c-14.503-0.567-18.081-2.072-18.081-15.451V317.3h15.812
	c13.518,0,19.567,4.996,23.669,18.835h6.434L427.084,307.88z"/>
</svg>
